<svg width="16" height="17" viewBox="0 0 16 17" fill="none" xmlns="http://www.w3.org/2000/svg">
<g id="Icon">
<path id="Vector" d="M2.02662 2.90667C1.8844 2.90667 1.75995 2.95112 1.65329 3.04C1.54662 3.12889 1.49329 3.24445 1.49329 3.38667V4.4C1.49329 4.54223 1.54662 4.65778 1.65329 4.74667C1.75995 4.83556 1.8844 4.88 2.02662 4.88H2.98662C3.12884 4.88 3.25329 4.83556 3.35995 4.74667C3.46662 4.65778 3.51995 4.54223 3.51995 4.4V3.38667C3.51995 3.24445 3.46662 3.12889 3.35995 3.04C3.25329 2.95112 3.12884 2.90667 2.98662 2.90667H2.02662ZM2.98662 3.38667H2.02662V4.4H2.98662V3.38667ZM5.01329 3.92C5.01329 3.77778 5.05773 3.65334 5.14662 3.54667C5.23551 3.44 5.35106 3.38667 5.49329 3.38667H14.5066C14.6488 3.38667 14.7644 3.44 14.8533 3.54667C14.9422 3.65334 14.9866 3.77778 14.9866 3.92C14.9866 4.06223 14.9422 4.17778 14.8533 4.26667C14.7644 4.35556 14.6488 4.4 14.5066 4.4H5.49329C5.35106 4.4 5.23551 4.35556 5.14662 4.26667C5.05773 4.17778 5.01329 4.06223 5.01329 3.92ZM5.49329 7.38667C5.35106 7.38667 5.23551 7.44 5.14662 7.54667C5.05773 7.65334 5.01329 7.77778 5.01329 7.92C5.01329 8.06223 5.05773 8.17778 5.14662 8.26667C5.23551 8.35556 5.35106 8.4 5.49329 8.4H14.5066C14.6488 8.4 14.7644 8.35556 14.8533 8.26667C14.9422 8.17778 14.9866 8.06223 14.9866 7.92C14.9866 7.77778 14.9422 7.65334 14.8533 7.54667C14.7644 7.44 14.6488 7.38667 14.5066 7.38667H5.49329ZM5.49329 11.3867C5.35106 11.3867 5.23551 11.44 5.14662 11.5467C5.05773 11.6533 5.01329 11.7778 5.01329 11.92C5.01329 12.0622 5.05773 12.1778 5.14662 12.2667C5.23551 12.3556 5.35106 12.4 5.49329 12.4H14.5066C14.6488 12.4 14.7644 12.3556 14.8533 12.2667C14.9422 12.1778 14.9866 12.0622 14.9866 11.92C14.9866 11.7778 14.9422 11.6533 14.8533 11.5467C14.7644 11.44 14.6488 11.3867 14.5066 11.3867H5.49329ZM1.49329 7.38667C1.49329 7.24445 1.54662 7.12889 1.65329 7.04C1.75995 6.95112 1.8844 6.90667 2.02662 6.90667H2.98662C3.12884 6.90667 3.25329 6.95112 3.35995 7.04C3.46662 7.12889 3.51995 7.24445 3.51995 7.38667V8.4C3.51995 8.54223 3.46662 8.65778 3.35995 8.74667C3.25329 8.83556 3.12884 8.88 2.98662 8.88H2.02662C1.8844 8.88 1.75995 8.83556 1.65329 8.74667C1.54662 8.65778 1.49329 8.54223 1.49329 8.4V7.38667ZM2.02662 7.38667H2.98662V8.4H2.02662V7.38667ZM2.02662 10.9067C1.8844 10.9067 1.75995 10.9511 1.65329 11.04C1.54662 11.1289 1.49329 11.2444 1.49329 11.3867V12.4C1.49329 12.5422 1.54662 12.6578 1.65329 12.7467C1.75995 12.8356 1.8844 12.88 2.02662 12.88H2.98662C3.12884 12.88 3.25329 12.8356 3.35995 12.7467C3.46662 12.6578 3.51995 12.5422 3.51995 12.4V11.3867C3.51995 11.2444 3.46662 11.1289 3.35995 11.04C3.25329 10.9511 3.12884 10.9067 2.98662 10.9067H2.02662ZM2.98662 11.3867H2.02662V12.4H2.98662V11.3867Z" fill="#0D6EFD"/>
</g>
</svg>
