<svg width="16" height="16" viewBox="0 0 16 16" fill="none" xmlns="http://www.w3.org/2000/svg">
<g id="Icon" clip-path="url(#clip0_0_499)">
<path id="Vector" d="M2.98664 1.97333C2.98664 1.72444 3.08442 1.50222 3.27997 1.30667C3.47553 1.11111 3.71553 1.01333 3.99997 1.01333H12C12.2844 1.01333 12.5244 1.11111 12.72 1.30667C12.9155 1.50222 13.0133 1.72444 13.0133 1.97333V14.9867H14.5066C14.6489 14.9867 14.7644 15.04 14.8533 15.1467C14.9422 15.2533 14.9866 15.3778 14.9866 15.52C14.9866 15.6622 14.9422 15.7778 14.8533 15.8667C14.7644 15.9556 14.6489 16 14.5066 16H1.49331C1.35108 16 1.23553 15.9556 1.14664 15.8667C1.05775 15.7778 1.01331 15.6622 1.01331 15.52C1.01331 15.3778 1.05775 15.2533 1.14664 15.1467C1.23553 15.04 1.35108 14.9867 1.49331 14.9867H2.98664V1.97333ZM3.99997 14.9867H12V1.97333H3.99997V14.9867ZM9.01331 9.01333C9.01331 9.29778 9.11108 9.53778 9.30664 9.73333C9.50219 9.92889 9.73331 10.0267 9.99997 10.0267C10.2666 10.0267 10.4978 9.92889 10.6933 9.73333C10.8889 9.53778 10.9866 9.29778 10.9866 9.01333C10.9866 8.72889 10.8889 8.48889 10.6933 8.29333C10.4978 8.09778 10.2666 8 9.99997 8C9.73331 8 9.50219 8.09778 9.30664 8.29333C9.11108 8.48889 9.01331 8.72889 9.01331 9.01333Z" fill="#0D6EFD"/>
</g>
<defs>
<clipPath id="clip0_0_499">
<rect width="16" height="16" fill="white" transform="matrix(1 0 0 -1 0 16)"/>
</clipPath>
</defs>
</svg>
