<svg width="16" height="17" viewBox="0 0 16 17" fill="none" xmlns="http://www.w3.org/2000/svg">
<g id="Icon" clip-path="url(#clip0_0_485)">
<path id="Vector" d="M2.88003 15.2267C2.84448 15.4756 2.9067 15.6623 3.0667 15.7867C3.2267 15.9112 3.41337 15.9378 3.6267 15.8667L8.00003 13.5734L12.3734 15.8667C12.5867 15.9378 12.7734 15.9112 12.9334 15.7867C13.0934 15.6623 13.1556 15.4756 13.12 15.2267L12.32 10.5334L15.84 7.1734C15.9823 6.99562 16.0267 6.80006 15.9734 6.58673C15.92 6.3734 15.7867 6.24895 15.5734 6.2134L10.6667 5.52006L8.48003 1.20006C8.37337 0.98673 8.21337 0.880063 8.00003 0.880063C7.7867 0.880063 7.6267 0.98673 7.52003 1.20006L5.33337 5.52006L0.480034 6.2134C0.231145 6.24895 0.0800343 6.3734 0.026701 6.58673C-0.0266323 6.80006 0.0178121 6.99562 0.160034 7.1734L3.68003 10.5334L2.88003 15.2267ZM7.7867 12.5067L4.1067 14.3734L4.80003 10.4267C4.83559 10.2134 4.78226 10.0356 4.64003 9.8934L1.7067 7.12006L5.76003 6.58673C5.93781 6.55117 6.06226 6.44451 6.13337 6.26673L8.00003 2.64006L9.8667 6.26673C9.93781 6.44451 10.0623 6.55117 10.24 6.58673L14.2934 7.12006L11.36 9.8934C11.2178 10.0356 11.1645 10.2134 11.2 10.4267L11.8934 14.3734L8.21337 12.5067C8.07115 12.4001 7.92892 12.4001 7.7867 12.5067Z" fill="#0D6EFD"/>
</g>
<defs>
<clipPath id="clip0_0_485">
<rect width="16" height="16" fill="white" transform="matrix(1 0 0 -1 0 16.4)"/>
</clipPath>
</defs>
</svg>
